# Blender 4.2.2 LTS
# www.blender.org
mtllib simplebed.mtl
o Cube
v -1.000000 -1.000000 -0.025037
v -1.000000 1.000000 -0.025037
v -1.000000 -1.000000 1.000000
v -1.000000 1.000000 1.000000
v 1.000000 -1.000000 -0.025037
v 1.000000 1.000000 -0.025037
v 1.000000 -1.000000 1.000000
v 1.000000 1.000000 1.000000
v -11.000000 -1.000000 -0.025037
v -11.000000 1.000000 -0.025037
v -11.000000 -1.000000 1.000000
v -11.000000 1.000000 1.000000
v -13.000000 -1.000000 -0.025037
v -13.000000 1.000000 -0.025037
v -13.000000 -1.000000 1.000000
v -13.000000 1.000000 1.000000
v 1.000000 1.000000 21.000000
v 1.000000 -1.000000 21.000000
v -1.000000 -1.000000 21.000000
v -1.000000 1.000000 21.000000
v -11.000000 -1.000000 21.000000
v -11.000000 1.000000 21.000000
v -13.000000 -1.000000 21.000000
v -13.000000 1.000000 21.000000
v 1.000000 1.000000 23.000000
v 1.000000 -1.000000 23.000000
v -1.000000 -1.000000 23.000000
v -1.000000 1.000000 23.000000
v -11.000000 -1.000000 23.000000
v -11.000000 1.000000 23.000000
v -13.000000 -1.000000 23.000000
v -13.000000 1.000000 23.000000
v 1.000000 4.000000 -0.025037
v 1.000000 4.000000 1.000000
v -1.000000 4.000000 -0.025037
v -1.000000 4.000000 1.000000
v -11.000000 4.000000 1.000000
v -11.000000 4.000000 -0.025037
v -13.000000 4.000000 1.000000
v -13.000000 4.000000 -0.025037
v -1.000000 4.000000 23.000000
v -1.000000 4.000000 21.000000
v 1.000000 4.000000 21.000000
v -11.000000 4.000000 21.000000
v -11.000000 4.000000 23.000000
v -13.000000 4.000000 21.000000
v 1.000000 4.000000 23.000000
v -13.000000 4.000000 23.000000
v -3.000000 -3.000000 4.000000
v -3.000000 -3.000000 2.000000
v -5.000000 -3.000000 4.000000
v -5.000000 -4.500000 4.000000
v -5.000000 -3.000000 2.000000
v -7.000000 -3.000000 2.000000
v -7.000000 -3.000000 4.000000
v -7.000000 -4.500000 4.000000
v -9.000000 -3.000000 2.000000
v -9.000000 -3.000000 4.000000
v -3.000000 -3.000000 6.000000
v -5.000000 -3.000000 6.000000
v -7.000000 -3.000000 6.000000
v -9.000000 -3.000000 6.000000
v -3.000000 -4.315526 4.000000
v -3.184474 -4.500000 4.000000
v -3.184474 -4.500000 2.184474
v -3.000000 -4.315526 2.000000
v -5.000000 -4.500000 2.184474
v -5.000000 -4.315526 2.000000
v -7.000000 -4.500000 2.184474
v -7.000000 -4.315526 2.000000
v -8.815526 -4.500000 2.184474
v -9.000000 -4.315526 2.000000
v -8.815526 -4.500000 4.000000
v -9.000000 -4.315526 4.000000
v -3.184474 -4.500000 5.815526
v -3.000000 -4.315526 6.000000
v -5.000000 -4.315526 6.000000
v -5.000000 -4.500000 5.815526
v -7.000000 -4.315526 6.000000
v -7.000000 -4.500000 5.815526
v -8.815526 -4.500000 5.815526
v -9.000000 -4.315526 6.000000
v -11.000000 -3.000000 21.000000
v -11.000000 -3.000000 1.000000
v -1.000000 -3.000000 1.000000
v -1.000000 -3.000000 21.000000
v 0.000000 -1.000000 1.000000
v 0.000000 -1.000000 21.000000
v 0.000000 -3.000000 1.000000
v 0.000000 -3.000000 21.000000
v -12.000000 -1.000000 21.000000
v -12.000000 -1.000000 1.000000
v -12.000000 -3.000000 21.000000
v -12.000000 -3.000000 1.000000
v 1.000000 1.000000 0.811189
v -1.000000 -1.000000 0.811189
v 1.000000 -1.000000 0.811189
v -1.000000 1.000000 0.811189
v -11.000000 -1.000000 0.811189
v -11.000000 1.000000 0.811189
v -13.000000 -1.000000 0.811189
v -13.000000 1.000000 0.811189
v 1.000000 4.000000 0.811189
v -1.000000 4.000000 0.811189
v -11.000000 4.000000 0.811189
v -13.000000 4.000000 0.811189
v 1.000000 -6.971384 0.811189
v 1.000000 -6.971384 -0.025037
v -1.000000 -6.971384 -0.025037
v -11.000000 -6.971384 -0.025037
v -13.000000 -6.971384 -0.025037
v -1.000000 -6.971384 0.811189
v -11.000000 -6.971384 0.811189
v -13.000000 -6.971384 0.811189
vn -0.0000 -1.0000 -0.0000
vn 1.0000 -0.0000 -0.0000
vn -1.0000 -0.0000 -0.0000
vn -0.0000 1.0000 -0.0000
vn -0.0000 -0.0000 -1.0000
vn -0.0000 -0.0000 1.0000
vn 0.7071 -0.7071 -0.0000
vn -0.0000 -0.7071 -0.7071
vn -0.7071 -0.7071 -0.0000
vn -0.0000 -0.7071 0.7071
vt 0.625000 0.726399
vt 0.875000 0.726399
vt 0.875000 0.750000
vt 0.625000 0.750000
vt 0.625000 0.000000
vt 0.375000 0.000000
vt 0.375000 0.023601
vt 0.625000 0.023601
vt 0.625000 0.250000
vt 0.375000 0.250000
vt 0.375000 0.750000
vt 0.375000 0.726399
vt 0.375000 0.500000
vt 0.625000 0.500000
vt 0.125000 0.750000
vt 0.625000 1.000000
vt 0.375000 1.000000
vt 0.375000 0.726399
vt 0.125000 0.726399
vt 0.625000 0.523059
vt 0.851941 0.523059
vt 0.851941 0.750000
vt 0.594254 0.500000
vt 0.625000 0.750000
vt 0.125000 0.500000
vt 0.851941 0.750000
vt 0.594254 0.750000
vt 0.625000 0.523059
vt 0.594254 0.000000
vt 0.594254 0.250000
vt 0.594254 1.000000
vt 0.625000 0.226941
vt 0.625000 0.273059
vt 0.625000 0.976941
vt 0.875000 0.500000
s 0
usemtl Material
f 96/1/1 97/2/1 7/3/1 3/4/1
f 7/5/2 8/6/2 17/6/2 18/5/2
f 95/7/2 97/8/2 5/9/2 6/10/2
f 20/11/3 28/11/3 41/11/3 42/11/3
f 98/12/4 2/13/4 10/13/4 100/12/4
f 6/10/5 5/9/5 1/14/5 2/13/5
f 99/1/1 11/4/1 15/4/1 101/1/1
f 96/1/1 3/4/1 11/4/1 99/1/1
f 12/11/4 16/11/4 24/11/4 22/11/4
f 2/13/5 1/14/5 9/14/5 10/13/5
f 102/12/3 101/1/3 15/4/3 16/11/3
f 10/13/5 9/14/5 13/14/5 14/13/5
f 16/11/6 12/11/6 37/11/6 39/11/6
f 11/4/5 84/4/5 94/4/5 92/4/5
f 23/4/1 21/4/1 29/4/1 31/4/1
f 10/13/5 14/13/5 40/13/5 38/13/5
f 20/11/4 22/11/4 30/11/4 28/11/4
f 16/11/3 15/4/3 23/4/3 24/11/3
f 8/15/4 4/11/4 20/11/4 17/15/4
f 3/4/1 7/3/1 18/3/1 19/4/1
f 4/11/4 12/11/4 22/11/4 20/11/4
f 15/4/1 11/4/1 21/4/1 23/4/1
f 28/11/6 27/4/6 26/16/6 25/17/6
f 27/4/6 28/11/6 30/11/6 29/4/6
f 29/4/6 30/11/6 32/11/6 31/4/6
f 21/4/1 19/4/1 27/4/1 29/4/1
f 19/4/1 18/3/1 26/3/1 27/4/1
f 18/5/2 17/6/2 25/6/2 26/5/2
f 98/12/3 4/11/3 36/11/3 104/18/3
f 24/11/3 23/4/3 31/4/3 32/11/3
f 103/19/4 104/18/4 36/11/4 34/15/4
f 105/12/4 38/13/4 40/13/4 106/12/4
f 43/15/4 42/11/4 41/11/4 47/15/4
f 44/11/4 46/11/4 48/11/4 45/11/4
f 24/11/3 32/11/3 48/11/3 46/11/3
f 95/7/2 6/10/2 33/10/2 103/7/2
f 22/11/5 24/11/5 46/11/5 44/11/5
f 100/12/2 10/13/2 38/13/2 105/12/2
f 4/11/6 8/15/6 34/15/6 36/11/6
f 102/12/3 16/11/3 39/11/3 106/12/3
f 6/10/5 2/13/5 35/13/5 33/10/5
f 32/11/6 30/11/6 45/11/6 48/11/6
f 17/15/5 20/11/5 42/11/5 43/15/5
f 25/6/2 17/6/2 43/6/2 47/6/2
f 30/11/2 22/11/2 44/11/2 45/11/2
f 28/11/6 25/17/6 47/17/6 41/11/6
f 67/20/1 65/21/1 64/22/1 52/4/1
f 53/13/5 68/23/5 70/23/5 54/13/5
f 51/11/4 53/13/4 54/13/4 55/11/4
f 73/4/1 56/4/1 80/4/1 81/24/1
f 50/25/4 53/13/4 51/11/4 49/15/4
f 52/4/1 64/22/1 75/26/1 78/4/1
f 57/13/3 72/23/3 74/27/3 58/11/3
f 54/13/5 70/23/5 72/23/5 57/13/5
f 67/20/1 52/4/1 56/4/1 69/20/1
f 55/11/4 58/11/4 62/11/4 61/11/4
f 58/11/3 74/27/3 82/27/3 62/11/3
f 69/20/1 56/4/1 73/4/1 71/28/1
f 77/27/6 60/11/6 61/11/6 79/27/6
f 55/11/4 54/13/4 57/13/4 58/11/4
f 56/4/1 52/4/1 78/4/1 80/4/1
f 79/27/6 61/11/6 62/11/6 82/27/6
f 49/6/2 63/29/2 66/30/2 50/10/2
f 49/15/4 51/11/4 60/11/4 59/15/4
f 51/11/4 55/11/4 61/11/4 60/11/4
f 60/11/6 77/27/6 76/31/6 59/17/6
f 50/10/5 66/30/5 68/23/5 53/13/5
f 64/5/7 65/32/7 66/30/7 63/29/7
f 65/33/8 67/14/8 68/23/8 66/30/8
f 70/23/8 68/23/8 67/20/8 69/20/8
f 71/28/9 73/4/9 74/27/9 72/23/9
f 72/23/8 70/23/8 69/20/8 71/28/8
f 78/4/10 75/34/10 76/31/10 77/27/10
f 77/27/10 79/27/10 80/4/10 78/4/10
f 79/27/10 82/27/10 81/24/10 80/4/10
f 73/4/9 81/24/9 82/27/9 74/27/9
f 75/5/7 64/5/7 63/29/7 76/29/7
f 63/29/2 49/6/2 59/6/2 76/29/2
f 84/4/1 85/4/1 86/4/1 83/4/1
f 19/4/6 86/4/6 90/4/6 88/4/6
f 11/4/5 3/4/5 85/4/5 84/4/5
f 19/4/6 21/4/6 83/4/6 86/4/6
f 87/4/2 88/4/2 90/4/2 89/4/2
f 3/4/4 19/4/4 88/4/4 87/4/4
f 85/4/5 3/4/5 87/4/5 89/4/5
f 86/4/1 85/4/1 89/4/1 90/4/1
f 91/4/3 92/4/3 94/4/3 93/4/3
f 21/4/4 11/4/4 92/4/4 91/4/4
f 84/4/1 83/4/1 93/4/1 94/4/1
f 83/4/6 21/4/6 91/4/6 93/4/6
f 14/13/3 102/12/3 106/12/3 40/13/3
f 12/11/2 100/12/2 105/12/2 37/11/2
f 8/6/2 95/7/2 103/7/2 34/6/2
f 37/11/4 105/12/4 106/12/4 39/11/4
f 33/25/4 35/13/4 104/18/4 103/19/4
f 2/13/3 98/12/3 104/18/3 35/13/3
f 14/13/3 13/14/3 101/1/3 102/12/3
f 5/9/2 97/8/2 107/8/2 108/9/2
f 99/1/6 101/1/6 114/1/6 113/1/6
f 4/11/4 98/12/4 100/12/4 12/11/4
f 8/6/2 7/5/2 97/8/2 95/7/2
f 9/14/5 1/14/5 109/14/5 110/14/5
f 109/14/1 112/1/1 113/1/1 110/14/1
f 110/14/1 113/1/1 114/1/1 111/14/1
f 109/14/1 108/35/1 107/2/1 112/1/1
f 97/2/6 96/1/6 112/1/6 107/2/6
f 13/14/5 9/14/5 110/14/5 111/14/5
f 96/1/6 99/1/6 113/1/6 112/1/6
f 101/1/3 13/14/3 111/14/3 114/1/3
f 1/14/5 5/9/5 108/9/5 109/14/5
